<svg xmlns="http://www.w3.org/2000/svg" xmlns:xlink="http://www.w3.org/1999/xlink" width="155" height="107.5" viewBox="0 0 155 107.5"><defs><style>.a{fill:url(#a);}.b{fill:#18288f;}</style><radialGradient id="a" cx="0.826" cy="0.273" r="1.726" gradientTransform="translate(0.154) scale(0.692 1)" gradientUnits="objectBoundingBox"><stop offset="0" stop-color="#787ff6"/><stop offset="0.35" stop-color="#7bd5f5"/><stop offset="1" stop-color="#1f2f98"/><stop offset="1" stop-color="#ff1d25"/></radialGradient></defs><path class="a" d="M66.5,107.5V72A33.06,33.06,0,0,0,78,74c17.92,0,32.5-14.13,32.5-31.5S95.92,11,78,11C60.52,11,46.36,24.14,45.55,41h0v66.5h-15A29.53,29.53,0,0,1,1,78V44A29.53,29.53,0,0,1,30.5,14.5H46.57L56.11,3a5.41,5.41,0,0,1,4.17-2H96.42a5.93,5.93,0,0,1,4.64,2.21l9.2,11.29H125.5A29.53,29.53,0,0,1,155,44V78a29.53,29.53,0,0,1-29.5,29.5Zm56-83.5a6,6,0,0,0-6,6.61A6.21,6.21,0,0,0,122.76,36H134.5a6,6,0,0,0,6-6.61A6.21,6.21,0,0,0,134.24,24Z" transform="translate(-0.5 -0.5)"/><path d="M96.42,1.5a5.47,5.47,0,0,1,4.25,2l9,11.11.3.37H125.5a29,29,0,0,1,29,29V78a29,29,0,0,1-29,29H67V72.67A33.58,33.58,0,0,0,78,74.5c18.2,0,33-14.36,33-32s-14.8-32-33-32c-17.59,0-31.86,13.1-32.93,30H45V107H30.5a29,29,0,0,1-29-29V44a29,29,0,0,1,29-29H46.81l.3-.36L56.5,3.28A4.88,4.88,0,0,1,60.28,1.5H96.42m26.34,35H134.5a6.52,6.52,0,0,0,6.5-7.16,6.71,6.71,0,0,0-6.73-5.84H122.5a6.52,6.52,0,0,0-6.5,7.16,6.71,6.71,0,0,0,6.73,5.84M96.42.5H60.28a5.9,5.9,0,0,0-4.55,2.15L46.34,14H30.5A30.09,30.09,0,0,0,.5,44V78a30.09,30.09,0,0,0,30,30H46V41.5h0c.54-16.66,14.64-30,32-30,17.67,0,32,13.88,32,31s-14.33,31-32,31a32.87,32.87,0,0,1-12-2.26V108h59.5a30.09,30.09,0,0,0,30-30V44a30.09,30.09,0,0,0-30-30h-15l-9-11.11A6.49,6.49,0,0,0,96.5.5Zm26.34,35A5.68,5.68,0,0,1,117,30.56a5.51,5.51,0,0,1,5.47-6.06h11.74A5.68,5.68,0,0,1,140,29.44a5.51,5.51,0,0,1-5.47,6.06Z" transform="translate(-0.5 -0.5)"/><ellipse class="b" cx="23.5" cy="22.5" rx="23.5" ry="22.5" transform="translate(54 19.5)"/><path d="M78,20.5c12.68,0,23,9.87,23,22s-10.32,22-23,22-23-9.87-23-22,10.32-22,23-22m0-1c-13.25,0-24,10.3-24,23s10.75,23,24,23,24-10.3,24-23S91.25,19.5,78,19.5Z" transform="translate(-0.5 -0.5)"/></svg>